<svg width="96" height="96" viewBox="16.040000915527344 16 63.959999084472656 64" fill="white"
    xmlns="http://www.w3.org/2000/svg">
    <g id="Refresh" clip-path="url(#clip0_3_107)">
        <path id="Vector"
            d="M70.6 25.4C64.8 19.6 56.84 16 48 16C30.32 16 16.04 30.32 16.04 48C16.04 65.68 30.32 80 48 80C62.92 80 75.36 69.8 78.92 56H70.6C67.32 65.32 58.44 72 48 72C34.76 72 24 61.24 24 48C24 34.76 34.76 24 48 24C54.64 24 60.56 26.76 64.88 31.12L52 44H80V16L70.6 25.4Z"
            fill="current"></path>
    </g>
    <defs>
        <clipPath id="clip0_3_107">
            <rect width="96" height="96" fill="white"></rect>
        </clipPath>
    </defs>
</svg>